<?xml version="1.0" encoding="UTF-8" standalone="no"?>
<svg xmlns="http://www.w3.org/2000/svg" width="64" height="64" viewBox="0 0 64 64">
  <circle cx="32" cy="32" r="32" fill="#25D366"/>
  <path fill="#FFFFFF" d="M42.2,21.8c-2.7-2.7-6.3-4.2-10.2-4.2c-8,0-14.4,6.4-14.4,14.4c0,2.5,0.6,5,1.9,7.2l-2,7.3l7.5-2c2.1,1.2,4.5,1.8,6.9,1.8h0c7.9,0,14.3-6.4,14.3-14.4C46.3,28.1,44.9,24.5,42.2,21.8z M32,43.1L32,43.1c-2.2,0-4.2-0.6-6.1-1.7l-0.4-0.2l-4.5,1.2l1.2-4.4l-0.3-0.4c-1.2-1.9-1.8-4.1-1.8-6.3c0-6.6,5.4-12,12-12c3.2,0,6.2,1.3,8.5,3.5c2.3,2.3,3.5,5.3,3.5,8.5C44,37.7,38.6,43.1,32,43.1z M38.5,33.9c-0.4-0.2-2.2-1.1-2.5-1.2s-0.6-0.2-0.8,0.2c-0.2,0.4-0.9,1.2-1.1,1.5c-0.2,0.3-0.4,0.3-0.8,0.1c-0.4-0.2-1.6-0.6-3.1-1.9c-1.1-1-1.9-2.2-2.1-2.6c-0.2-0.4,0-0.5,0.2-0.7c0.2-0.2,0.4-0.4,0.6-0.7c0.2-0.2,0.3-0.4,0.4-0.7c0.1-0.3,0.1-0.5,0-0.7c-0.1-0.2-0.8-2-1.1-2.7c-0.3-0.7-0.6-0.6-0.8-0.6c-0.2,0-0.5,0-0.7,0c-0.3,0-0.7,0.1-1,0.4s-1.4,1.3-1.4,3.2c0,1.9,1.4,3.7,1.6,4c0.2,0.3,2.6,4.1,6.5,5.6c0.9,0.4,1.6,0.6,2.2,0.8c0.9,0.3,1.7,0.2,2.3,0.2c0.7-0.1,2.2-0.9,2.5-1.8c0.3-0.9,0.3-1.6,0.2-1.8C39.1,34.2,38.9,34.1,38.5,33.9z"/>
</svg>
